<?xml version="1.0" standalone="no"?>
<!DOCTYPE svg PUBLIC "-//W3C//DTD SVG 20010904//EN"
 "http://www.w3.org/TR/2001/REC-SVG-20010904/DTD/svg10.dtd">
<svg version="1.0" xmlns="http://www.w3.org/2000/svg"
 width="306.000000pt" height="306.000000pt" viewBox="0 0 306.000000 306.000000"
 preserveAspectRatio="xMidYMid meet">
<metadata>
Created by potrace 1.11, written by Peter Selinger 2001-2013
</metadata>
<g transform="translate(0.000000,306.000000) scale(0.100000,-0.100000)"
fill="#000000" stroke="none">
<path d="M110 2977 c0 -8 75 -151 90 -172 4 -5 19 -31 34 -57 47 -85 78 -141
107 -190 16 -27 29 -51 29 -53 0 -3 20 -39 45 -81 25 -41 45 -77 45 -79 0 -2
25 -47 55 -100 30 -54 55 -101 55 -106 0 -5 5 -9 10 -9 6 0 10 -5 10 -10 0 -6
11 -28 24 -49 14 -21 22 -42 19 -45 -4 -3 -1 -6 5 -6 7 0 12 -4 12 -8 0 -5 31
-64 70 -131 39 -68 70 -127 70 -132 0 -5 5 -9 12 -9 6 0 9 -3 5 -6 -3 -3 5
-24 19 -45 13 -21 24 -43 24 -49 0 -5 5 -10 10 -10 6 0 10 -6 10 -14 0 -8 6
-21 13 -28 6 -8 20 -29 31 -48 10 -19 36 -67 57 -106 40 -73 44 -99 20 -128
-7 -9 -11 -16 -8 -16 4 0 -5 -16 -18 -36 -14 -20 -25 -42 -25 -49 0 -7 -7 -18
-15 -25 -9 -7 -13 -15 -10 -18 3 -3 -2 -14 -12 -24 -9 -10 -13 -18 -8 -18 4 0
3 -6 -3 -12 -10 -13 -83 -149 -157 -295 -23 -45 -47 -88 -53 -95 -6 -7 -10
-15 -10 -18 1 -6 -18 -44 -100 -200 -30 -58 -92 -178 -139 -268 l-84 -162 387
2 387 3 20 35 c11 19 33 61 48 92 l28 57 94 -47 c88 -44 110 -54 182 -80 53
-20 187 -53 229 -57 23 -2 71 -8 108 -13 72 -9 267 -8 320 2 18 3 60 8 92 11
33 4 63 8 68 11 4 3 24 7 45 10 54 7 137 33 222 71 77 34 175 104 220 156 9
10 24 28 35 40 28 33 84 154 101 222 18 66 26 259 14 315 -23 105 -43 156 -92
229 -35 51 -98 115 -139 139 -15 9 -28 19 -28 23 0 4 -13 12 -30 19 -16 7 -30
16 -30 21 0 5 -6 9 -14 9 -7 0 -19 7 -26 15 -7 8 -16 13 -20 10 -4 -3 -13 2
-20 10 -7 8 -19 15 -26 15 -8 0 -22 4 -32 9 -37 19 -70 31 -152 57 -210 65
-284 97 -324 136 -37 37 -38 40 -34 90 7 71 35 93 143 108 85 12 193 3 301
-25 56 -14 203 -73 218 -86 27 -25 45 0 151 214 61 121 113 229 117 238 5 14
-6 24 -56 48 -34 17 -71 33 -82 36 -10 3 -64 18 -119 34 -55 16 -123 32 -150
35 -27 4 -53 10 -57 12 -5 3 -39 8 -74 10 -78 4 -90 10 -72 32 8 10 20 31 28
47 8 17 21 38 29 48 8 9 11 17 6 17 -4 0 -3 6 3 13 5 6 38 66 72 132 35 66 83
158 107 205 25 47 49 91 55 98 6 6 7 12 3 12 -5 0 0 9 10 20 10 11 15 20 10
20 -4 0 -2 7 5 15 7 8 11 15 9 16 -14 4 -762 3 -767 -1 -8 -6 -43 -67 -43 -75
0 -5 -45 -104 -120 -263 -27 -57 -49 -105 -49 -107 0 -3 -22 -51 -49 -107 -27
-57 -62 -132 -78 -168 -66 -144 -78 -166 -102 -203 -31 -48 -31 -48 -100 88
-17 33 -47 87 -66 120 -20 33 -49 87 -66 120 -17 33 -42 78 -55 100 -12 22
-31 56 -40 75 -10 19 -28 52 -41 73 -13 20 -21 37 -17 37 3 0 -3 12 -13 28
-26 39 -38 59 -76 132 -72 135 -81 150 -91 151 -55 6 -756 2 -756 -4z m1751
-2002 c34 -14 66 -25 71 -25 7 0 35 -11 128 -53 119 -53 153 -163 75 -241 -18
-18 -39 -33 -46 -34 -8 0 -44 -6 -81 -13 -59 -11 -77 -11 -143 5 -79 19 -319
132 -348 163 -14 17 -11 26 39 123 29 58 61 121 70 141 l17 35 78 -37 c42 -21
105 -50 140 -64z"/>
</g>
</svg>
