<?xml version="1.0" encoding="utf-8"?>
<!-- Generator: Adobe Illustrator 21.1.0, SVG Export Plug-In . SVG Version: 6.00 Build 0)  -->
<svg version="1.1" id="Layer_1" xmlns="http://www.w3.org/2000/svg" xmlns:xlink="http://www.w3.org/1999/xlink" x="0px" y="0px"
	 viewBox="0 0 966 28.8" style="enable-background:new 0 0 966 28.8;" xml:space="preserve">
<style type="text/css">
	.st0{fill:#CAC5C2;}
	.st1{fill:#FEFEFE;}
	.st2{fill:#D6BF23;}
	.st3{fill:#D6BF24;}
</style>
<g>
	<g>
		<path class="st0" d="M3,29.1c-0.9,0-1.8,0-2.6,0c-0.2-0.3-0.1-0.7-0.1-1.1c0-8.9,0-17.8,0-26.6c0-1,0.3-1.3,1.3-1.3
			c6.2,0.1,12.3,0,18.5,0c0.4,0.2,0.5,0.6,0.6,1c0.3,1.4,0.3,1.5,1.8,1.5c4.1,0,8.1,0,12.2,0c2.5,0,4.9,0,7.4,0c1.6,0,1.7,0,1.8-1.6
			c0-0.3,0-0.6,0.3-0.8c11,0,22,0,33,0c0.4,0.2,0.6,0.7,0.6,1.1c0,1.1,0.6,1.4,1.5,1.3c1.2,0,2.5,0,3.7,0c5.3,0,10.6,0,15.9,0
			c1.7,0,1.7,0,2.1-1.6c0.1-0.3,0.2-0.6,0.5-0.8c1.2-0.1,2.4,0,3.6,0c9.8,0,19.6,0,29.4,0c0.4,0.2,0.5,0.6,0.6,1
			c0.2,1.4,0.3,1.5,1.8,1.5c4.3,0,8.6,0,12.9,0c2.3,0,4.5,0,6.8,0c1.5,0,1.6-0.1,1.7-1.6c0-0.3,0-0.6,0.3-0.8c11.1,0,22.1,0,33.2,0
			c0.5,0.3,0.4,0.8,0.4,1.3c0,0.8,0.4,1.2,1.2,1.2c0.2,0,0.4,0,0.6,0c6.5,0,13.1,0,19.6,0c1.5,0,1.5,0,1.8-1.5
			c0.1-0.4,0.2-0.7,0.5-0.9c3.2-0.1,6.4,0,9.6,0c7.8,0,15.6,0,23.5,0c0.4,0.2,0.6,0.7,0.6,1.1c0,1.1,0.6,1.4,1.5,1.3
			c1.2,0,2.5,0,3.7,0c5.3,0,10.6,0,15.9,0c1.7,0,1.7,0,2.1-1.6c0.1-0.3,0.2-0.6,0.5-0.8c1.2-0.1,2.4,0,3.6,0c9.8,0,19.6,0,29.4,0
			c0.4,0.2,0.5,0.6,0.6,1c0.2,1.4,0.3,1.5,1.8,1.5c4.3,0,8.6,0,12.9,0c2.3,0,4.5,0,6.8,0c1.5,0,1.6-0.1,1.7-1.6c0-0.3,0-0.6,0.3-0.8
			c11.1,0,22.1,0,33.2,0c0.5,0.3,0.4,0.8,0.4,1.3c0,0.8,0.4,1.2,1.2,1.2c0.2,0,0.4,0,0.6,0c6.5,0,13.1,0,19.6,0c1.5,0,1.5,0,1.8-1.5
			c0.1-0.4,0.2-0.7,0.5-0.9c3.2-0.1,6.4,0,9.6,0c7.8,0,15.6,0,23.4,0c0.4,0.2,0.5,0.6,0.6,1c0.2,1.4,0.3,1.5,1.8,1.5
			c4.3,0,8.6,0,12.9,0c2.3,0,4.5,0,6.8,0c1.5,0,1.6-0.1,1.7-1.6c0-0.3,0-0.6,0.3-0.8c11.1,0,22.1,0,33.2,0c0.5,0.3,0.4,0.8,0.4,1.3
			c0,0.8,0.4,1.2,1.2,1.2c0.2,0,0.4,0,0.6,0c6.5,0,13.1,0,19.6,0c1.5,0,1.5,0,1.8-1.5c0.1-0.4,0.2-0.7,0.5-0.9c3.2-0.1,6.4,0,9.6,0
			c7.8,0,15.6,0,23.5,0c0.4,0.2,0.6,0.7,0.6,1.1c0,1.1,0.6,1.4,1.5,1.3c1.2,0,2.5,0,3.7,0c5.3,0,10.6,0,15.9,0c1.7,0,1.7,0,2.1-1.6
			c0.1-0.3,0.2-0.6,0.5-0.8c1-0.1,2,0,3,0c10,0,20,0,30,0c0.6,0.3,0.4,0.9,0.4,1.4c0.1,0.7,0.4,1,1.1,1c0.1,0,0.2,0,0.2,0
			c6.9,0,13.7,0,20.6,0c0.8,0,1.3-0.3,1.3-1.2c0-0.5,0.1-1,0.5-1.3c3.2-0.1,6.4,0,9.6,0c7.8,0,15.6,0,23.5,0
			c0.4,0.2,0.6,0.7,0.6,1.1c0,1.1,0.6,1.4,1.5,1.3c1.2,0,2.5,0,3.7,0c5.3,0,10.6,0,15.9,0c1.7,0,1.7,0,2.1-1.6
			c0.1-0.3,0.2-0.6,0.5-0.8c1.2-0.1,2.4,0,3.6,0c9.8,0,19.6,0,29.4,0c0.4,0.2,0.5,0.6,0.6,1c0.2,1.4,0.3,1.5,1.8,1.5
			c4.1,0,8.3,0,12.4,0c2.4,0,4.8,0,7.2,0c1.6,0,1.7,0,1.8-1.6c0-0.3,0-0.6,0.3-0.8c11,0,22,0,33,0c0.4,0.2,0.6,0.7,0.6,1.1
			c0,1.1,0.6,1.4,1.5,1.3c1.2,0,2.5,0,3.7,0c5.3,0,10.6,0,15.9,0c1.7,0,1.7,0,2.1-1.6c0.1-0.3,0.2-0.6,0.5-0.8c1.2-0.1,2.4,0,3.6,0
			c9.8,0,19.6,0,29.4,0c0.4,0.2,0.5,0.6,0.6,1c0.2,1.4,0.3,1.5,1.8,1.5c4.3,0,8.6,0,12.9,0c2.3,0,4.5,0,6.8,0c1.5,0,1.6-0.1,1.7-1.6
			c0-0.3,0-0.6,0.3-0.8c11.1,0,22.1,0,33.2,0c0.5,0.3,0.4,0.8,0.4,1.3c0,0.8,0.4,1.2,1.2,1.2c0.2,0,0.4,0,0.6,0c6.5,0,13.1,0,19.6,0
			c1.5,0,1.5,0,1.8-1.5c0.1-0.4,0.2-0.7,0.5-0.9c3.2-0.1,6.4,0,9.6,0c7.8,0,15.6,0,23.5,0c0.4,0.2,0.6,0.7,0.6,1.1
			c0,1.1,0.6,1.4,1.5,1.3c1.2,0,2.3,0,3.5,0c5.3,0,10.7,0,16,0c1.8,0,1.8,0,2.3-1.7c0.1-0.3,0.2-0.5,0.4-0.7
			c1.9-0.1,3.9-0.2,5.8,0.1c0.1,0.4,0.1,0.8,0.1,1.2c0,8.7,0,17.4,0,26c0,1.6,0.2,1.4-1.5,1.4c-123.2,0-246.5,0-369.7,0
			c-196.8,0-393.6,0-590.4,0C4.1,29,3.5,28.9,3,29.1z"/>
		<path class="st1" d="M821.7,0.4c-11.1,0-22.1,0-33.2,0c-0.4,0.5-0.9,0.5-1.4,0.5c-7.1,0-14.2,0-21.3,0c-0.5,0-1,0-1.4-0.5
			c-4.4,0-8.7,0-13.1,0c-6.7,0-13.4,0-20.1,0c-0.4,0.5-0.9,0.5-1.4,0.5c-7.1,0-14.1,0-21.2,0c-0.5,0-1,0-1.4-0.5
			c-11.1,0-22.1,0-33.2,0c-0.4,0.5-0.9,0.5-1.4,0.5c-7.1,0-14.2,0-21.3,0c-0.5,0-1,0-1.4-0.5c-5.9,0-11.7,0-17.6,0
			c-5.2,0-10.4,0-15.6,0c-0.4,0.5-1,0.5-1.5,0.5c-7,0-14,0-20.9,0c-0.5,0-1.1,0.1-1.5-0.5c-11.1,0-22.1,0-33.2,0
			c-0.4,0.5-0.9,0.5-1.4,0.5c-7.1,0-14.2,0-21.3,0c-0.5,0-1,0-1.4-0.5c-6.8,0-13.7,0-20.5,0c-4.2,0-8.5,0-12.7,0
			c-0.4,0.4-0.9,0.5-1.4,0.5c-7.1,0-14.1,0-21.2,0c-0.5,0-1.1,0-1.4-0.5c-11.1,0-22.2,0-33.4,0c-0.4,0.5-0.9,0.5-1.4,0.5
			c-7,0-14.1,0-21.1,0c-0.5,0-1,0-1.4-0.5c-9.3,0-18.7,0-28,0c-1.7,0-3.4,0-5.2,0c-0.4,0.5-0.9,0.5-1.4,0.5c-7,0-14.1,0-21.1,0
			c-0.5,0-1.1,0-1.4-0.5c-11.1,0-22.2,0-33.4,0c-0.4,0.5-0.9,0.5-1.4,0.5c-7,0-14.1,0-21.1,0c-0.5,0-1,0-1.4-0.5
			c-11.1,0-22.1,0-33.2,0c-0.4,0.5-0.9,0.5-1.4,0.5c-7.1,0-14.2,0-21.3,0c-0.5,0-1,0-1.4-0.5c-4.6,0-9.2,0-13.8,0
			c-6.5,0-13,0-19.4,0c-0.4,0.5-0.9,0.5-1.4,0.5c-7,0-14.1,0-21.1,0c-0.5,0-1.1,0-1.4-0.5c-7.8,0-15.6,0-23.5,0c-3.3,0-6.6,0-9.9,0
			c-0.4,0.5-0.9,0.5-1.4,0.5c-7,0-14.1,0-21.1,0c-0.5,0-1,0-1.4-0.5c-9.6,0-19.2,0-28.8,0c-1.5,0-3,0-4.4,0
			c-0.4,0.5-0.9,0.5-1.4,0.5c-7.1,0-14.2,0-21.3,0c-0.5,0-1,0-1.4-0.5c-3.9,0-7.7,0-11.6,0c-7.2,0-14.4,0-21.6,0
			c-0.4,0.5-0.9,0.5-1.4,0.5c-7.1,0-14.1,0-21.2,0c-0.5,0-1,0-1.4-0.5c-6.2,0-12.4,0-18.6-0.1c-1.1,0-1.1,0.6-1.1,1.3
			c0,9.2,0,18.3,0,27.5c-0.4,0.1-0.2-0.2-0.2-0.4c0-9.4,0-18.7,0-28.1c0-0.5,0.1-0.7,0.6-0.6c0.2,0,0.3,0,0.5,0
			c321.4,0,642.7,0,964.1,0c0.4,0,0.8-0.3,1.1,0.2c0,0-0.1,0-0.1,0c-2,0-4,0-6,0.1c-0.4,0.5-0.9,0.5-1.4,0.5c-7.1,0-14.2,0-21.3,0
			c-0.5,0-1,0-1.4-0.5c-4.5,0-9,0-13.5,0c-6.6,0-13.1,0-19.7,0c-0.4,0.5-0.9,0.5-1.4,0.5c-7,0-14.1,0-21.1,0c-0.5,0-1.1,0-1.4-0.5
			c-8.5,0-16.9,0-25.4,0c-2.7,0-5.3,0-8,0c-0.4,0.5-0.9,0.5-1.4,0.5c-7,0-14.1,0-21.1,0C822.6,0.8,822,0.8,821.7,0.4z"/>
		<path class="st2" d="M966.3,0.3C966.3,0.3,966.3,0.3,966.3,0.3l0.1,0c0,9.3,0,18.6,0,28c0,0.7-0.1,1-0.9,0.8c-0.1,0-0.2,0-0.4,0
			c-320.7,0-641.4,0-962.2,0c0.1-0.3,0.4-0.2,0.6-0.2c0.4,0,0.9,0,1.3,0c319.7,0,639.5,0,959.2,0c2.3,0,2,0.3,2-1.9
			c0-8.4,0-16.8,0-25.2C966.2,1.3,966.2,0.8,966.3,0.3z"/>
		<path class="st3" d="M77.2,0.4c8,0,16.1,0,24.1,0c0.2,2.9,0.2,2.9-2.6,2.9c-6.6,0-13.1,0-19.7,0c-2,0-2,0-1.9-1.9
			C77.2,1,77.2,0.7,77.2,0.4z"/>
		<path class="st3" d="M249.1,0.4c8,0,16.1,0,24.1,0c0.2,2.9,0.2,2.9-2.6,2.9c-6.6,0-13.1,0-19.7,0c-2,0-2,0-1.9-1.9
			C249,1,249,0.7,249.1,0.4z"/>
		<path class="st3" d="M535.4,0.4c8,0,16.1,0,24.1,0c0.2,2.9,0.2,2.9-2.7,2.9c-6.6,0-13.1,0-19.7,0c-1.8,0-1.8,0-1.8-1.8
			C535.3,1.1,535.3,0.7,535.4,0.4z"/>
		<path class="st3" d="M649.8,0.4c8,0,16.1,0,24.1,0c0.2,2.9,0.2,2.9-2.7,2.9c-6.5,0-13,0-19.6,0c-1.9,0-1.9,0-1.9-1.9
			C649.8,1,649.8,0.7,649.8,0.4z"/>
		<path class="st3" d="M764.3,0.4c8,0,16.1,0,24.1,0c0.2,2.9,0.2,2.9-2.6,2.9c-6.6,0-13.1,0-19.7,0c-2,0-2,0-1.9-1.9
			C764.3,1,764.3,0.7,764.3,0.4z"/>
		<path class="st3" d="M936.2,0.4c8,0,16.1,0,24.1,0c0.2,2.9,0.2,2.9-2.6,2.9c-6.6,0-13.1,0-19.7,0c-2,0-2,0-1.9-1.9
			C936.1,1,936.2,0.7,936.2,0.4z"/>
		<path class="st3" d="M20.1,0.3c8,0,16,0,24,0c0.6,2.6,0.4,2.9-2.2,2.9c-6.7,0-13.3,0-20,0c-1.9,0-1.9,0-1.9-2
			C20,1,20,0.7,20.1,0.3z"/>
		<path class="st2" d="M134.6,0.4c8,0,16,0,24,0c0.4,0.7,0.2,1.5,0.2,2.2c0,0.6-0.4,0.7-0.9,0.7c-1,0-2,0-3,0c-6.1,0-12.3,0-18.4,0
			c-1.9,0-1.9,0-1.9-2C134.5,1,134.5,0.7,134.6,0.4z"/>
		<path class="st2" d="M191.9,0.4c8,0,16,0,23.9,0c0.3,2.9,0.3,2.9-2.6,2.9c-6.5,0-12.9,0-19.4,0C191.5,3.3,191.1,2.8,191.9,0.4z"/>
		<path class="st3" d="M306.4,0.4c8,0,16,0,24,0c0.4,0.7,0.2,1.5,0.2,2.2c0,0.6-0.4,0.7-0.9,0.7c-1,0-2,0-3,0c-6.1,0-12.3,0-18.4,0
			c-1.9,0-1.9,0-1.9-2C306.3,1,306.4,0.7,306.4,0.4z"/>
		<path class="st3" d="M363.7,0.3c8,0,16,0,24,0c0.2,2.9,0.2,2.9-2.7,2.9c-6.5,0-13,0-19.5,0c-2.1,0-2.1,0-2-2.1
			C363.5,0.9,363.6,0.6,363.7,0.3z"/>
		<path class="st3" d="M420.9,0.4c8,0,16,0,24,0c0.4,0.6,0.2,1.3,0.2,2c0.1,0.7-0.2,0.9-0.9,0.9c-1.2,0-2.3,0-3.5,0
			c-6.1,0-12.2,0-18.3,0c-1.6,0-1.6,0-1.5-1.6C420.8,1.2,420.8,0.8,420.9,0.4z"/>
		<path class="st3" d="M478.2,0.3c8,0,16,0,24,0c0.3,2.9,0.3,2.9-2.7,2.9c-6.5,0-13.1,0-19.6,0c-1.9,0-2,0-1.9-2
			C478,1,478.1,0.7,478.2,0.3z"/>
		<path class="st3" d="M592.7,0.3c8,0,16,0,24,0c0.3,2.9,0.3,2.9-2.5,2.9c-6.6,0-13.2,0-19.8,0c-1.9,0-1.9,0-1.9-2
			C592.5,1,592.6,0.7,592.7,0.3z"/>
		<path class="st3" d="M707.2,0.3c8,0,16,0,24,0c0.6,2.6,0.4,2.9-2.2,2.9c-6.7,0-13.4,0-20.1,0c-1.8,0-1.8,0-1.8-1.8
			C707.1,1.1,707.1,0.7,707.2,0.3z"/>
		<path class="st3" d="M821.7,0.4c8,0,16,0,24,0c0.4,0.7,0.2,1.5,0.2,2.2c0,0.6-0.4,0.7-0.9,0.7c-1.2,0-2.3,0-3.5,0
			c-6,0-12,0-17.9,0c-1.9,0-1.9,0-1.9-2C821.6,1,821.6,0.7,821.7,0.4z"/>
		<path class="st2" d="M879,0.4c8,0,16,0,23.9,0c0.3,2.9,0.3,2.9-2.6,2.9c-6.5,0-12.9,0-19.4,0C878.6,3.3,878.3,2.8,879,0.4z"/>
	</g>
</g>
</svg>
